<svg xmlns="http://www.w3.org/2000/svg" viewBox="0 0 500 150"><defs><style>.cls-1{fill:#b6b6b6;}.cls-2{fill:#fff;}.cls-3{fill:#c8102e;}</style></defs><title>Asset 1</title><g id="Layer_2" data-name="Layer 2"><g id="Layer_1-2" data-name="Layer 1"><path class="cls-1" d="M464.73,0H31.24c-1.13,0-2.26,0-3.4,0a50.26,50.26,0,0,0-7.42.66,24.31,24.31,0,0,0-7,2.32,23.9,23.9,0,0,0-6,4.36,23.59,23.59,0,0,0-4.36,6A24.51,24.51,0,0,0,.72,20.44a47.24,47.24,0,0,0-.66,7.41C0,29,0,30.12,0,31.26v87.49c0,1.15,0,2.27.06,3.42a47.45,47.45,0,0,0,.66,7.41,24.25,24.25,0,0,0,2.31,7A23.81,23.81,0,0,0,13.39,147a24.66,24.66,0,0,0,7,2.34,50.24,50.24,0,0,0,7.42.65c1.14,0,2.27,0,3.4,0h437.5c1.13,0,2.28,0,3.41,0a49.39,49.39,0,0,0,7.4-.65,25.23,25.23,0,0,0,7.07-2.34,23.08,23.08,0,0,0,6-4.36,23.45,23.45,0,0,0,4.38-6,24.52,24.52,0,0,0,2.29-7,50.05,50.05,0,0,0,.69-7.41c0-1.15,0-2.27,0-3.42,0-1.34,0-2.68,0-4V35.3c0-1.36,0-2.7,0-4,0-1.14,0-2.28,0-3.41a49.81,49.81,0,0,0-.69-7.41,24.78,24.78,0,0,0-2.29-7A24,24,0,0,0,486.62,3,24.86,24.86,0,0,0,479.55.71a49.4,49.4,0,0,0-7.4-.66c-1.13,0-2.28,0-3.41,0Z"/><path d="M31.26,146.76c-1.13,0-2.23,0-3.35,0a47.28,47.28,0,0,1-6.92-.6,22,22,0,0,1-6.13-2,20.68,20.68,0,0,1-8.95-8.93,21.4,21.4,0,0,1-2-6.14,45,45,0,0,1-.61-6.94c0-.78-.06-3.38-.06-3.38V31.26s0-2.56.06-3.31A44.37,44.37,0,0,1,3.9,21a21.23,21.23,0,0,1,2-6.16A19.94,19.94,0,0,1,9.67,9.69,20.79,20.79,0,0,1,14.86,5.9a21.79,21.79,0,0,1,6.12-2,46.29,46.29,0,0,1,6.94-.61l3.34,0H468.72l3.38,0a44.07,44.07,0,0,1,6.88.6,21.68,21.68,0,0,1,6.18,2,20.63,20.63,0,0,1,8.94,9,21.38,21.38,0,0,1,2,6.11,48,48,0,0,1,.64,7c0,1.05,0,2.18,0,3.3,0,1.39,0,2.71,0,4v79.4c0,1.35,0,2.66,0,4s0,2.31,0,3.45a45.45,45.45,0,0,1-.63,6.86,21,21,0,0,1-2,6.18,20.82,20.82,0,0,1-8.94,8.91,21.53,21.53,0,0,1-6.17,2,46.7,46.7,0,0,1-6.92.6c-1.08,0-2.22,0-3.32,0H31.26Z"/><path class="cls-2" d="M185.59,101.26H168L163.73,113H156L173.2,69.14h7.3L198.09,113H190Zm-15.35-6h13.1l-4.69-12.56c-.64-1.73-1.28-3.65-1.9-5.75-.57,1.86-1.19,3.75-1.85,5.69Z"/><path class="cls-2" d="M201.2,88.33q0-3.63-.24-8h7a34.84,34.84,0,0,1,.54,4.15,13.25,13.25,0,0,1,10-4.76,11.27,11.27,0,0,1,10.55,6.86,20.85,20.85,0,0,1,1.71,9,22.44,22.44,0,0,1-2,9.78,14,14,0,0,1-5.46,6.14,15.6,15.6,0,0,1-8.11,2.09,19.9,19.9,0,0,1-6.57-1.12V126l-7.48.64ZM220.86,105c1.52-2,2.29-5,2.29-9q0-5.47-1.9-8a6,6,0,0,0-5-2.46,8.07,8.07,0,0,0-4,1,15,15,0,0,0-3.51,2.75v17.5a11.33,11.33,0,0,0,2.6.86,14.15,14.15,0,0,0,2.94.32A7.76,7.76,0,0,0,220.86,105Z"/><path class="cls-2" d="M235.31,88.33q0-3.63-.24-8h7a32.9,32.9,0,0,1,.55,4.15q4.37-4.76,10-4.76a11.27,11.27,0,0,1,10.55,6.86,20.85,20.85,0,0,1,1.71,9,22.44,22.44,0,0,1-1.95,9.78,14,14,0,0,1-5.47,6.14,15.57,15.57,0,0,1-8.11,2.09,19.9,19.9,0,0,1-6.57-1.12V126l-7.48.64ZM255,105q2.28-3.07,2.28-9,0-5.47-1.89-8a6,6,0,0,0-5-2.46,8.11,8.11,0,0,0-4,1,15,15,0,0,0-3.51,2.75v17.5a11.66,11.66,0,0,0,2.6.86,14.15,14.15,0,0,0,2.94.32A7.78,7.78,0,0,0,255,105Z"/><path class="cls-2" d="M278.63,110.93a18.19,18.19,0,0,1-7.45-7.67,25.18,25.18,0,0,1-2.6-11.81,24.7,24.7,0,0,1,3-12.55,19.33,19.33,0,0,1,8.16-7.75,25.54,25.54,0,0,1,11.58-2.59,30.32,30.32,0,0,1,7.22.84,30.67,30.67,0,0,1,6.4,2.28L303,77.43a26.56,26.56,0,0,0-11.39-2.84,15.94,15.94,0,0,0-8,2,13.3,13.3,0,0,0-5.35,5.74,20.14,20.14,0,0,0-1.9,9.14,22.22,22.22,0,0,0,1.46,8.32,12.33,12.33,0,0,0,4.64,5.76,14,14,0,0,0,8,2.12,26.64,26.64,0,0,0,4.36-.37,22.05,22.05,0,0,0,4.09-1.06V97.32H288.77V91.51h17.41V110a38.84,38.84,0,0,1-7.89,2.69,36.83,36.83,0,0,1-8.22.94A23.23,23.23,0,0,1,278.63,110.93Z"/><path class="cls-2" d="M332.75,113a28.71,28.71,0,0,1-.52-4.33,14.42,14.42,0,0,1-4.49,3.5,13.36,13.36,0,0,1-6.25,1.44,11.77,11.77,0,0,1-5.14-1.11,8.43,8.43,0,0,1-3.67-3.33,10.18,10.18,0,0,1-1.37-5.43,9.3,9.3,0,0,1,3.43-7.58q3.42-2.84,11.41-2.83a41.81,41.81,0,0,1,5.93.42v-.64q0-4.32-1.84-6.1a7.38,7.38,0,0,0-5.3-1.77,20.94,20.94,0,0,0-5.12.7A26.85,26.85,0,0,0,315,87.6l-1.18-5.44a28.8,28.8,0,0,1,5.26-1.67,30.87,30.87,0,0,1,6.91-.76,18,18,0,0,1,7.2,1.29,9.44,9.44,0,0,1,4.63,4.42,18.05,18.05,0,0,1,1.67,8.43v13q0,2,.24,6.14Zm-4.48-6a12.06,12.06,0,0,0,3.81-2.79v-6a48.42,48.42,0,0,0-5-.33q-4.63,0-6.41,1.5a5,5,0,0,0-1.77,4,4.58,4.58,0,0,0,1.29,3.58,5,5,0,0,0,3.5,1.17A10.49,10.49,0,0,0,328.27,107Z"/><path class="cls-2" d="M345.27,105.16V66.56l7.44-.6v37.87a4.72,4.72,0,0,0,.71,3,2.76,2.76,0,0,0,2.26.87,8.13,8.13,0,0,0,2-.34l.88,5.36a12.87,12.87,0,0,1-2.59.68,17.71,17.71,0,0,1-2.89.26Q345.27,113.61,345.27,105.16Z"/><path class="cls-2" d="M363.88,105.16V66.56l7.45-.6v37.87a4.72,4.72,0,0,0,.71,3,2.76,2.76,0,0,0,2.26.87,8.13,8.13,0,0,0,2-.34l.87,5.36a12.76,12.76,0,0,1-2.58.68,17.73,17.73,0,0,1-2.9.26Q363.89,113.61,363.88,105.16Z"/><path class="cls-2" d="M407.77,97.62H386.4q.51,10.27,9.78,10.27a21,21,0,0,0,4.71-.56,28.24,28.24,0,0,0,4.61-1.5l1.64,5.12a27.91,27.91,0,0,1-12.32,2.66,18,18,0,0,1-8.78-2,12.59,12.59,0,0,1-5.38-5.66,20.15,20.15,0,0,1-1.8-8.9,21.05,21.05,0,0,1,1.91-9.32,13.89,13.89,0,0,1,5.31-6,14.91,14.91,0,0,1,7.86-2.06,13.2,13.2,0,0,1,7.73,2.17,12.86,12.86,0,0,1,4.6,5.77,20.49,20.49,0,0,1,1.5,8Zm-7.29-4.75a9.4,9.4,0,0,0-2-5.86,6,6,0,0,0-4.69-2,6.31,6.31,0,0,0-4.74,2,10.42,10.42,0,0,0-2.47,5.84Z"/><path class="cls-2" d="M413.43,88.54c0-1.79-.09-4.53-.25-8.2h7c.12.91.23,2,.35,3.25s.18,2.29.22,3.08a27.1,27.1,0,0,1,2.56-3.62,10.41,10.41,0,0,1,2.94-2.39,7.76,7.76,0,0,1,3.83-.93,10.31,10.31,0,0,1,3,.37l-.94,6.48a8.6,8.6,0,0,0-7,1A18.88,18.88,0,0,0,420.87,92v21h-7.44Z"/><path class="cls-2" d="M437.24,126.37a18.05,18.05,0,0,1-2.69-.65l1.36-5.45a19,19,0,0,0,1.91.41,13,13,0,0,0,2.18.2q5,0,7.44-6.39l.49-1.21L435.88,80.34h8L450,98.75a59.88,59.88,0,0,1,1.9,7.23c.57-2.36,1.23-4.72,2-7.08L460,80.34h7.53l-12,33.09a34.05,34.05,0,0,1-3.67,7.57,12.81,12.81,0,0,1-4.64,4.26,13.86,13.86,0,0,1-6.47,1.4A20.43,20.43,0,0,1,437.24,126.37Z"/><path class="cls-2" d="M156,27.38H169.3l-.37,3.22h-9.05v6.23h8.53v3h-8.53v6.9h9.53L169.08,50H156Z"/><path class="cls-2" d="M178.49,38.46l-7-11.08h4.44l4.76,8.14,5-8.14H190l-7,10.94L190.57,50h-4.5l-5.39-8.9L175.19,50h-4.31Z"/><path class="cls-2" d="M193.44,27.38h6.1q4.29,0,6.58,1.75a6,6,0,0,1,2.28,5.06,7.34,7.34,0,0,1-1,3.93,6.73,6.73,0,0,1-2.85,2.58,9.4,9.4,0,0,1-4.2.9,17,17,0,0,1-3-.31V50h-3.91Zm9.8,10.1a4.09,4.09,0,0,0,1.25-3.19,3.46,3.46,0,0,0-1.27-3,6.4,6.4,0,0,0-3.75-.92h-2.12v8a14.82,14.82,0,0,0,2.25.23A5.22,5.22,0,0,0,203.24,37.48Z"/><path class="cls-2" d="M212.26,27.38h3.9V46.66h9.36L225.19,50H212.26Z"/><path class="cls-2" d="M231.46,48.89a9.38,9.38,0,0,1-3.8-4,13,13,0,0,1-1.31-6,13.38,13.38,0,0,1,1.4-6.26,9.76,9.76,0,0,1,4-4.14A12.51,12.51,0,0,1,238,27.07a11.7,11.7,0,0,1,5.89,1.41,9.35,9.35,0,0,1,3.77,4,13,13,0,0,1,1.29,5.93,13.43,13.43,0,0,1-1.41,6.33,9.93,9.93,0,0,1-4,4.14,12.49,12.49,0,0,1-6.15,1.46A11.65,11.65,0,0,1,231.46,48.89Zm10.12-2.77a6.59,6.59,0,0,0,2.46-3,11.33,11.33,0,0,0,.81-4.41,12.25,12.25,0,0,0-.72-4.35,6.43,6.43,0,0,0-2.3-3,7.75,7.75,0,0,0-8.09,0,7,7,0,0,0-2.48,3.08,10.5,10.5,0,0,0-.83,4.25,11.74,11.74,0,0,0,.78,4.4,6.44,6.44,0,0,0,6.37,4.18A6.94,6.94,0,0,0,241.58,46.12Z"/><path class="cls-2" d="M253.3,27.38h7.08a9.4,9.4,0,0,1,5.87,1.55,5.25,5.25,0,0,1,2,4.42,6.67,6.67,0,0,1-.72,3.16,7,7,0,0,1-1.78,2.23A8,8,0,0,1,263.55,40l7,10H266l-5.89-9h-2.87v9H253.3Zm6.13,10.7a5.46,5.46,0,0,0,2.51-.55A4.12,4.12,0,0,0,263.65,36a4.47,4.47,0,0,0,.61-2.33,2.86,2.86,0,0,0-1.08-2.49,5.26,5.26,0,0,0-3.14-.79h-2.83v7.73Z"/><path class="cls-2" d="M273.6,27.38h13.33l-.38,3.22h-9v6.23H286v3h-8.53v6.9H287L286.71,50H273.6Z"/><path class="cls-2" d="M301.43,27.38h3.9V50h-3.9Z"/><path class="cls-2" d="M315.66,30.64h-7l.34-3.26H326.6l-.36,3.26h-6.67V50h-3.91Z"/><path class="cls-2" d="M343.55,48.89a9.36,9.36,0,0,1-3.79-4,12.87,12.87,0,0,1-1.32-6,13.38,13.38,0,0,1,1.4-6.26,9.81,9.81,0,0,1,4-4.14,12.56,12.56,0,0,1,6.21-1.46A11.65,11.65,0,0,1,356,28.48a9.29,9.29,0,0,1,3.77,4,13,13,0,0,1,1.3,5.93,13.32,13.32,0,0,1-1.42,6.33,9.87,9.87,0,0,1-4,4.14,12.43,12.43,0,0,1-6.15,1.46A11.65,11.65,0,0,1,343.55,48.89Zm10.13-2.77a6.63,6.63,0,0,0,2.45-3,11.33,11.33,0,0,0,.81-4.41,12.25,12.25,0,0,0-.72-4.35,6.41,6.41,0,0,0-2.29-3,7.76,7.76,0,0,0-8.1,0,7,7,0,0,0-2.48,3.08,10.67,10.67,0,0,0-.83,4.25,11.74,11.74,0,0,0,.78,4.4,6.7,6.7,0,0,0,2.39,3.06,6.8,6.8,0,0,0,4,1.12A7,7,0,0,0,353.68,46.12Z"/><path class="cls-2" d="M365.4,27.38h4.48l11.19,17.53c-.1-1.67-.14-3.2-.14-4.61V27.38h3.62V50h-4.34L368.85,32.19c.11,2,.17,3.81.17,5.38V50H365.4Z"/><g id="形状_1_拷贝_25" data-name="形状 1 拷贝 25"><rect class="cls-3" x="32.76" y="27.5" width="95" height="95" rx="26.73"/></g><path class="cls-2" d="M51.57,75h2.52V87.43H51.57V82.38H45.88v5.05H43.36V75h2.52v5h5.69Zm14.2,7.11c0,2-1,3.1-2.82,3.1S60.11,84.11,60.11,82V75H57.59v7.1c0,3.49,1.94,5.49,5.32,5.49s5.38-2,5.38-5.6V75H65.77Zm29.12,1.43L92.07,75H90L87.2,83.55,84.45,75H81.77L86.1,87.43h2.09L91,79.27l2.82,8.16h2.11L100.26,75H97.64Zm9.88-1.47h4.59V79.82h-4.59V77.28h6.66V75h-9.14v12.4h9.38V85.16h-6.9Zm9.9,5.33h2.49V75h-2.49Zm-41.4-2.57-1.13,2.58H69.57L75,75h2.22l5.45,12.41H80.07L79,84.84Zm.94-2.24H78L76.1,78.15Z"/><path class="cls-2" d="M80.26,59.19A15.82,15.82,0,0,1,64.45,43.38h2.23a13.58,13.58,0,0,0,27.16,0h2.23A15.82,15.82,0,0,1,80.26,59.19Z"/></g></g></svg>