<svg width="92" height="92" viewBox="0 0 92 92" fill="none" xmlns="http://www.w3.org/2000/svg">
<g opacity="0.8">
<rect x="0.247314" y="0.808105" width="91.1449" height="91.1449" rx="45.5724" fill="#F5F7FA"/>
<path d="M66.7381 46.3805C66.7381 57.9335 57.3726 67.299 45.8196 67.299C34.2667 67.299 24.9011 57.9335 24.9011 46.3805C24.9011 34.8276 34.2667 25.462 45.8196 25.462C57.3726 25.462 66.7381 34.8276 66.7381 46.3805ZM27.3071 46.3805C27.3071 56.6047 35.5954 64.8931 45.8196 64.8931C56.0438 64.8931 64.3322 56.6047 64.3322 46.3805C64.3322 36.1563 56.0438 27.868 45.8196 27.868C35.5954 27.868 27.3071 36.1563 27.3071 46.3805Z" fill="#1E928F"/>
<rect x="26.9924" y="32.784" width="37.6533" height="2.09185" rx="1.04592" fill="#1E928F"/>
<rect x="29.0845" y="30.6917" width="33.4696" height="2.09185" rx="1.04592" fill="#1E928F"/>
<path d="M62.5543 36.4447C56.909 34.9633 53.3049 35.1413 45.2965 39.0596C39.2757 35.7738 35.7727 34.68 29.0847 36.4447V34.8759H62.5543V36.4447Z" fill="#1E928F"/>
<path fill-rule="evenodd" clip-rule="evenodd" d="M30.1306 46.3811C30.1306 44.6481 31.5354 43.2433 33.2684 43.2433H58.3706C60.1035 43.2433 61.5084 44.6481 61.5084 46.3811V52.6566C61.5084 54.3895 60.1035 55.7944 58.3706 55.7944H33.2684C31.5354 55.7944 30.1306 54.3896 30.1306 52.6566V46.3811ZM36.7272 47.9564C35.8189 48.041 34.8348 48.9246 34.8372 50.5634C34.8376 50.8522 34.6038 51.0867 34.315 51.0871C34.0262 51.0875 33.7917 50.8537 33.7913 50.5649C33.7883 48.4872 35.0879 47.0585 36.6303 46.915C37.398 46.8435 38.1815 47.1024 38.8109 47.7135C39.4359 48.3202 39.8841 49.2475 40.0615 50.4857C40.1025 50.7717 39.9039 51.0366 39.618 51.0776C39.3321 51.1186 39.0671 50.92 39.0262 50.6341C38.8726 49.5622 38.5009 48.8702 38.0823 48.4639C37.6683 48.0619 37.1848 47.9138 36.7272 47.9564ZM52.618 50.5635C52.6156 48.9247 53.5997 48.041 54.508 47.9565C54.9656 47.9139 55.449 48.062 55.8631 48.464C56.2816 48.8703 56.6533 49.5622 56.8069 50.6342C56.8479 50.9201 57.1129 51.1186 57.3988 51.0777C57.6847 51.0367 57.8833 50.7717 57.8423 50.4858C57.6648 49.2475 57.2166 48.3203 56.5917 47.7135C55.9623 47.1025 55.1787 46.8436 54.411 46.915C52.8687 47.0586 51.569 48.4873 51.572 50.565C51.5725 50.8538 51.8069 51.0876 52.0958 51.0872C52.3846 51.0868 52.6184 50.8523 52.618 50.5635Z" fill="#1E928F"/>
</g>
</svg>
